<mxfile host="app.diagrams.net" modified="2024-01-24T08:23:05.807Z" agent="Mozilla/5.0 (Windows NT 10.0; Win64; x64) AppleWebKit/537.36 (KHTML, like Gecko) Chrome/120.0.0.0 Safari/537.36" etag="1xquVOF8g7BOeNPM4hb4" version="23.0.0" type="github">
  <diagram name="第 1 页" id="q5VWo7YROwjMWn6kW4Jo">
    <mxGraphModel dx="1050" dy="541" grid="0" gridSize="10" guides="1" tooltips="1" connect="1" arrows="1" fold="1" page="1" pageScale="1" pageWidth="827" pageHeight="1169" math="0" shadow="0">
      <root>
        <mxCell id="0" />
        <mxCell id="1" parent="0" />
        <mxCell id="vLHZaRy7evYTwg9gnATb-2" value="" style="triangle;whiteSpace=wrap;html=1;direction=north;" vertex="1" parent="1">
          <mxGeometry x="153" y="74" width="478" height="432" as="geometry" />
        </mxCell>
        <mxCell id="vLHZaRy7evYTwg9gnATb-4" value="" style="endArrow=none;html=1;rounded=0;exitX=0.613;exitY=0.312;exitDx=0;exitDy=0;exitPerimeter=0;entryX=0.618;entryY=0.688;entryDx=0;entryDy=0;entryPerimeter=0;" edge="1" parent="1" source="vLHZaRy7evYTwg9gnATb-2" target="vLHZaRy7evYTwg9gnATb-2">
          <mxGeometry width="50" height="50" relative="1" as="geometry">
            <mxPoint x="387" y="307" as="sourcePoint" />
            <mxPoint x="477" y="239" as="targetPoint" />
          </mxGeometry>
        </mxCell>
        <mxCell id="vLHZaRy7evYTwg9gnATb-5" value="第一层：触手可及的。好吃的美事，好玩的游戏，好看的视频，好爽的打飞机" style="text;html=1;strokeColor=none;fillColor=none;align=center;verticalAlign=middle;whiteSpace=wrap;rounded=0;" vertex="1" parent="1">
          <mxGeometry x="165" y="457" width="459" height="33" as="geometry" />
        </mxCell>
        <mxCell id="vLHZaRy7evYTwg9gnATb-6" value="" style="endArrow=none;html=1;rounded=0;entryX=0.169;entryY=0.906;entryDx=0;entryDy=0;entryPerimeter=0;exitX=0.157;exitY=0.076;exitDx=0;exitDy=0;exitPerimeter=0;" edge="1" parent="1">
          <mxGeometry width="50" height="50" relative="1" as="geometry">
            <mxPoint x="193.32799999999997" y="438.17599999999993" as="sourcePoint" />
            <mxPoint x="590.068" y="432.99199999999996" as="targetPoint" />
          </mxGeometry>
        </mxCell>
        <mxCell id="vLHZaRy7evYTwg9gnATb-7" value="第二层：先苦后甜。先付出后收获，一旦收获，爽感加倍。" style="text;html=1;strokeColor=none;fillColor=none;align=left;verticalAlign=middle;whiteSpace=wrap;rounded=0;" vertex="1" parent="1">
          <mxGeometry x="287" y="262" width="200" height="44" as="geometry" />
        </mxCell>
        <mxCell id="vLHZaRy7evYTwg9gnATb-8" value="第三层：爽感拉低到负一万，然后再上升到正一万" style="text;html=1;strokeColor=none;fillColor=none;align=left;verticalAlign=middle;whiteSpace=wrap;rounded=0;" vertex="1" parent="1">
          <mxGeometry x="349" y="164" width="91" height="64" as="geometry" />
        </mxCell>
        <mxCell id="vLHZaRy7evYTwg9gnATb-9" value="先把爽感降低到-100，当你获得回报，爽感直线飙升，升到 100" style="text;html=1;strokeColor=none;fillColor=none;align=left;verticalAlign=middle;whiteSpace=wrap;rounded=0;" vertex="1" parent="1">
          <mxGeometry x="261" y="320" width="262" height="38" as="geometry" />
        </mxCell>
        <mxCell id="vLHZaRy7evYTwg9gnATb-10" value="焦虑、压力、忍耐、空虚、贪婪是二、三层玩家必备的配置，那是拉低爽感所必须得技巧" style="text;html=1;strokeColor=none;fillColor=none;align=left;verticalAlign=middle;whiteSpace=wrap;rounded=0;" vertex="1" parent="1">
          <mxGeometry x="244.5" y="378" width="295" height="43" as="geometry" />
        </mxCell>
      </root>
    </mxGraphModel>
  </diagram>
</mxfile>
